<svg width="200" height="60" viewBox="0 0 200 60" fill="none" xmlns="http://www.w3.org/2000/svg">
  <rect width="60" height="60" rx="10" fill="#0284C7"/>
  <path d="M15 20H45M15 30H35M15 40H30" stroke="white" stroke-width="4" stroke-linecap="round"/>
  <circle cx="40" cy="40" r="5" fill="#C4B5FD" stroke="white" stroke-width="2"/>
  <path d="M70 20H78V45H70V20Z" fill="#0C4A6E"/>
  <path d="M82 20H99.4C101.933 20 104.067 20.6 105.8 21.8C107.533 22.9667 108.4 24.7333 108.4 27.1C108.4 28.8333 107.867 30.2333 106.8 31.3C105.733 32.3667 104.267 33.0333 102.4 33.3V33.5C104.667 33.8333 106.367 34.5667 107.5 35.7C108.633 36.8333 109.2 38.2667 109.2 40C109.2 42.5333 108.3 44.5 106.5 45.9C104.7 47.3 102.267 48 99.2 48H82V20ZM90 31H96.6C97.8 31 98.7333 30.7333 99.4 30.2C100.067 29.6667 100.4 28.9 100.4 27.9C100.4 26.9667 100.067 26.2333 99.4 25.7C98.7333 25.1667 97.8 24.9 96.6 24.9H90V31ZM90 43.1H97.2C98.4667 43.1 99.4667 42.8 100.2 42.2C100.933 41.6 101.3 40.7667 101.3 39.7C101.3 38.6333 100.933 37.8 100.2 37.2C99.4667 36.6 98.4667 36.3 97.2 36.3H90V43.1Z" fill="#0C4A6E"/>
  <path d="M116.039 20H124.039V38.9C124.039 40.4333 124.372 41.5667 125.039 42.3C125.706 43.0333 126.672 43.4 127.939 43.4C129.206 43.4 130.172 43.0333 130.839 42.3C131.506 41.5667 131.839 40.4333 131.839 38.9V20H139.839V38.9C139.839 41.1667 139.339 43.1 138.339 44.7C137.339 46.3 135.972 47.5 134.239 48.3C132.506 49.1 130.572 49.5 128.439 49.5C126.306 49.5 124.372 49.1 122.639 48.3C120.906 47.5 119.539 46.3 118.539 44.7C117.539 43.1 117.039 41.1667 117.039 38.9V20H116.039Z" fill="#0C4A6E"/>
  <path d="M146.155 20H154.155V20.9L163.955 39.8H164.155V20H172.155V48H164.155V47.1L154.355 28.2H154.155V48H146.155V20Z" fill="#0C4A6E"/>
  <path d="M177.494 20H200.494V25.5H177.494V20Z" fill="#0C4A6E"/>
  <path d="M178.494 31H197.494V36.2H178.494V31Z" fill="#0C4A6E"/>
  <path d="M178.494 42.5H197.494V48H178.494V42.5Z" fill="#0C4A6E"/>
</svg> 